PathFileType	4	(X/Y/Z)	S01_0011_Gait_markers.trc
DataRate	CameraRate	NumFrames	NumMarkers	Units	OrigDataRate	OrigDataStartFrame	OrigNumFrames
250.000000	250.000000	4	54	mm	250.000000	269	359
Frame#	Time	HEAD_ANT			R_HEAD			L_HEAD			C7			R_BACK			L_BACK			STERNUM			R_ACROMION			R_HUM_PROX			R_HUM_ANT			R_HUM_POST			R_ELBOW_LAT			R_ELBOW_MED			R_FOREARM			R_WIRST_LAT			R_WRITS_MED			R_HAND			L_ACROMION			L_HUM_PROX			L_HUM_ANT			L_HUM_POST			L_ELBOW_LAT			L_ELBOW_MED			L_FOREARM			L_WRIST_LAT			L_WIRST_MED			L_HAND			R_ILIAC			SACRUM			L_ILIAC			R_GTROCH			R_THIGH__1			R_THIGH_2			R_THIGH_3			R_THIGH_4			R_SHANK_1			R_SHANK_2			R_SHANK_3			R_SHANK_4			R_HEEL			R_FOOT_LAT			R_FOOT_MED			L_GTROCH			L_THIGH_1			L_THIGH_2			L_THIGH_3			L_THIGH_4			L_SHANK_1			L_SHANK_2			L_SHANK_3			L_SHANK_4			L_HEEL			L_FOOT_LAT			L_FOOT_MED			
		X1	Y1	Z1	X2	Y2	Z2	X3	Y3	Z3	X4	Y4	Z4	X5	Y5	Z5	X6	Y6	Z6	X7	Y7	Z7	X8	Y8	Z8	X9	Y9	Z9	X10	Y10	Z10	X11	Y11	Z11	X12	Y12	Z12	X13	Y13	Z13	X14	Y14	Z14	X15	Y15	Z15	X16	Y16	Z16	X17	Y17	Z17	X18	Y18	Z18	X19	Y19	Z19	X20	Y20	Z20	X21	Y21	Z21	X22	Y22	Z22	X23	Y23	Z23	X24	Y24	Z24	X25	Y25	Z25	X26	Y26	Z26	X27	Y27	Z27	X28	Y28	Z28	X29	Y29	Z29	X30	Y30	Z30	X31	Y31	Z31	X32	Y32	Z32	X33	Y33	Z33	X34	Y34	Z34	X35	Y35	Z35	X36	Y36	Z36	X37	Y37	Z37	X38	Y38	Z38	X39	Y39	Z39	X40	Y40	Z40	X41	Y41	Z41	X42	Y42	Z42	X43	Y43	Z43	X44	Y44	Z44	X45	Y45	Z45	X46	Y46	Z46	X47	Y47	Z47	X48	Y48	Z48	X49	Y49	Z49	X50	Y50	Z50	X51	Y51	Z51	X52	Y52	Z52	X53	Y53	Z53	X54	Y54	Z54	

270	1.076	1626.742797851562	1733.617431640625	-322.2965393066402	1566.131591796875	1683.281494140625	-246.0952453613278	1566.256591796875	1687.677978515625	-392.6508789062496	1425.662231445312	1517.181518554688	-325.9393615722653	1349.504760742188	1322.000366210938	-258.5553894042966	1351.739013671875	1324.000610351562	-398.9448547363278	1603.287353515625	1354.306884765625	-321.8417358398435	1498.432495117188	1470.172241210938	-151.8128051757809	1447.089721679688	1314.80712890625	-59.35168075561494	1502.454467773438	1225.524169921875	-51.25698852539035	1381.306640625	1236.771484375	-47.24888610839816	1421.22021484375	1127.371459960938	-34.07606887817358	1400.867065429688	1121.868408203125	-115.7794494628904	1510.985961914062	939.8492431640625	-22.38340187072733	1548.746826171875	872.499267578125	-56.75777435302715	1478.224731445312	851.3836059570312	-23.10027885436993	1545.184326171875	784.8734130859375	-0.707296013831918	1508.068969726562	1470.299438476562	-489.7483520507809	1496.494384765625	1305.642700195313	-588.5120849609372	1561.657592773438	1227.527221679688	-584.089172363281	1442.955200195312	1226.807250976563	-620.9400634765623	1507.596801757812	1124.926879882813	-625.5912475585935	1450.732055664062	1113.045654296875	-572.349426269531	1638.056884765625	970.4108886718751	-583.0072631835935	1671.946411132812	918.9592895507814	-523.8204956054685	1640.36669921875	885.6364746093751	-587.3144531249998	1724.032348632812	846.3999633789064	-561.9582519531248	1502.601440429688	1071.276733398438	-146.7250976562498	1370.313232421875	1039.800048828125	-308.7142028808591	1485.088500976562	1061.800659179688	-491.4380187988279	1472.238403320312	917.5408325195312	-127.7743759155271	1596.543212890625	652.7342529296875	-153.0384368896483	1645.073486328125	685.9423217773438	-149.6543884277342	1681.04736328125	589.869873046875	-183.0252075195311	1617.916381835938	575.8242797851562	-173.8160400390624	1654.736450195312	358.1387939453126	-168.1548614501952	1712.764038085938	349.2103881835938	-182.8821716308593	1726.596923828125	265.5998229980469	-199.2632598876953	1662.8369140625	258.4162597656251	-189.1506805419921	1675.224487304688	40.65487670898444	-276.3036193847656	1834.244506835938	51.1958389282227	-185.8133544921875	1883.3544921875	85.88656616210943	-269.1708984375	1445.6806640625	952.4228515625001	-488.3204040527341	1477.913452148438	661.8491821289064	-467.4711608886717	1429.338012695312	691.0161743164064	-483.0592651367186	1396.548706054688	595.5006713867189	-449.1645507812499	1459.30322265625	585.3425903320314	-441.6026306152343	1358.97412109375	327.6639709472657	-424.4627380371093	1299.038696289062	318.599822998047	-427.7577209472656	1277.916625976562	236.0613555908204	-406.9657592773437	1340.8046875	229.4093780517579	-396.9961242675781	1197.650390625	63.14950180053718	-328.6121215820312	1367.366821289062	21.56269454956064	-401.4744262695312	1407.619262695312	26.22104263305671	-296.8011779785156	
271	1.08	1632.383666992188	1732.481689453125	-322.0676574707027	1571.778686523438	1682.1123046875	-245.850433349609	1571.960327148438	1686.713134765625	-392.3013305664059	1431.303588867188	1516.203979492188	-325.895599365234	1354.665283203125	1321.163818359375	-258.5035705566403	1357.098876953125	1323.01171875	-398.6988830566403	1608.800903320312	1352.99755859375	-321.6584167480466	1503.990844726562	1469.009643554688	-151.71760559082	1452.605590820312	1313.5810546875	-59.31570434570283	1507.970825195312	1224.327270507812	-51.31302261352512	1386.891723632812	1235.570068359375	-47.2045593261716	1426.587036132812	1126.10400390625	-34.04978942871069	1406.321655273438	1120.707885742188	-115.9114761352537	1516.221069335938	938.530029296875	-22.0844211578367	1553.927734375	870.97119140625	-56.36713409423809	1483.256103515625	850.3082275390625	-22.88131332397442	1550.044555664062	783.6398315429688	-0.2719184756277251	1513.68603515625	1469.018920898438	-489.5012207031247	1502.213623046875	1304.398315429688	-588.2366943359372	1567.626342773438	1226.312133789063	-583.8414916992185	1449.217651367188	1225.923095703125	-621.1304931640623	1514.109008789062	1123.71484375	-625.5205078124998	1455.850830078125	1112.071411132813	-573.611145019531	1645.053588867188	969.9077758789064	-582.6171874999998	1678.887329101562	918.6232910156251	-523.4276123046873	1647.618286132812	885.1508789062501	-586.9923095703123	1731.412109375	846.2363891601564	-561.4006347656248	1508.048706054688	1069.952392578125	-146.7217102050779	1375.668579101562	1038.790771484375	-308.429260253906	1490.502319335938	1060.777099609375	-491.408020019531	1477.652465820312	916.1652221679688	-127.8495864868162	1601.526123046875	651.3238525390625	-153.1020355224608	1650.109619140625	684.7286987304688	-149.2887420654295	1686.142456054688	588.562255859375	-182.7276763916014	1623.089599609375	574.443359375	-173.7272796630858	1664.4287109375	357.3261718750001	-167.9807128906249	1722.40966796875	349.3125305175782	-183.238800048828	1737.910400390625	266.1054992675782	-199.8954467773437	1674.251220703125	257.4555053710938	-189.3752441406249	1690.924682617188	40.27877044677741	-277.0112915039062	1850.180419921875	53.24050903320317	-187.4087524414062	1898.22216796875	89.37997436523443	-270.8416137695312	1450.794921875	951.6870117187501	-488.347717285156	1481.171020507812	661.5098266601564	-467.6776733398436	1432.538818359375	690.8267822265626	-483.3771667480467	1399.415161132812	595.3151855468751	-449.0184326171874	1462.169799804688	584.8952026367189	-441.8384704589843	1360.501342773438	327.6883239746095	-424.3918151855468	1300.364379882812	318.9532165527345	-427.7017822265624	1278.857177734375	236.5018768310548	-406.8185729980468	1341.790161132812	229.6278381347657	-397.1748657226562	1197.323852539062	64.31001281738288	-328.884521484375	1367.1572265625	21.56139755249032	-401.3596801757812	1407.654663085938	26.23047447204597	-296.8295288085938	
272	1.084	1637.991455078125	1731.293701171875	-321.8844299316402	1577.382202148438	1680.89111328125	-245.6705169677731	1577.769409179688	1685.513549804688	-392.0865783691402	1436.918334960938	1515.072265625	-325.6532592773434	1360.307739257812	1320.144287109375	-258.541564941406	1362.582275390625	1321.993530273438	-398.7103576660153	1614.10888671875	1351.477294921875	-321.447082519531	1509.563720703125	1467.730224609375	-151.5911102294919	1458.169067382812	1312.3369140625	-59.26662063598604	1513.589965820312	1223.037963867188	-51.39180755615207	1392.488159179688	1234.410766601562	-47.22170257568332	1431.985473632812	1124.906616210938	-34.0085945129392	1412.13427734375	1119.414306640625	-115.6631927490232	1521.358642578125	937.2365112304688	-21.71155548095682	1559.161865234375	869.6678466796875	-55.94446182250957	1488.407470703125	849.0596313476562	-22.56574058532696	1554.96435546875	782.214111328125	0.2341988682748624	1519.446166992188	1467.896362304688	-489.3883972167965	1508.3251953125	1303.325073242188	-587.9793701171872	1573.736450195312	1225.329345703125	-583.4848022460935	1455.367309570312	1224.946899414063	-621.087707519531	1520.39208984375	1122.657348632813	-625.4641113281248	1463.489135742188	1110.367431640625	-572.4635620117185	1651.848754882812	969.3654174804689	-582.3378295898435	1685.81787109375	918.2680053710939	-523.037170410156	1654.720581054688	884.4945678710939	-586.4843749999998	1738.7548828125	846.1679077148439	-560.9357299804685	1513.539184570312	1068.631958007812	-146.7823486328123	1381.229370117188	1037.719604492188	-308.2825927734373	1496.12744140625	1059.784790039062	-491.4093627929685	1483.079467773438	914.911865234375	-127.9044494628904	1606.59619140625	650.0394287109375	-152.5233459472655	1655.100341796875	683.4078979492188	-148.6942291259764	1691.2626953125	587.2865600585938	-182.4537048339842	1628.132446289062	572.8115844726562	-173.4899749755858	1673.752685546875	356.1683349609376	-168.4386291503905	1732.42578125	349.9496154785157	-182.8039398193359	1749.163330078125	266.6729736328126	-200.4883728027343	1685.873657226562	256.8641052246094	-189.5679168701171	1706.25830078125	40.31267166137702	-277.6893310546875	1865.979736328125	55.47583770751957	-188.9335174560547	1912.843627929688	92.47920227050787	-272.4583435058594	1455.872802734375	950.8090820312501	-488.1628723144529	1484.355224609375	660.7627563476564	-468.1420288085936	1435.965698242188	690.4012451171876	-483.2755737304686	1402.2158203125	595.1741333007814	-449.0182495117186	1464.686767578125	584.1599731445314	-442.5349121093749	1361.881103515625	327.5851440429689	-424.3743591308593	1301.730834960938	319.3171691894532	-427.4175720214843	1279.84326171875	237.0998535156251	-406.4328613281249	1342.935668945312	229.7535247802735	-397.2628479003906	1197.460571289062	64.96948242187507	-328.8743896484375	1366.944702148438	21.54889106750497	-401.2670288085938	1407.68701171875	26.25429916381843	-296.8844909667969	
273	1.088	1643.668701171875	1730.110595703125	-321.7975463867184	1583.091430664062	1679.755493164062	-245.5001068115231	1583.276489257812	1684.28369140625	-391.7796020507809	1442.518188476562	1513.830444335938	-325.421478271484	1365.646728515625	1319.218994140625	-258.4764404296872	1368.1142578125	1321.122680664062	-398.6181335449216	1619.9326171875	1350.2421875	-321.5650634765622	1515.15966796875	1466.550415039062	-151.4622650146481	1463.690795898438	1311.124755859375	-59.30428314208955	1519.238403320312	1221.830078125	-51.38114166259739	1398.00390625	1233.100463867188	-47.22230148315402	1437.511840820312	1123.66748046875	-34.12625122070288	1417.847534179688	1118.14697265625	-115.6343765258787	1526.5576171875	935.989013671875	-21.44164848327616	1564.326171875	868.16455078125	-55.68358230590801	1493.55126953125	847.8289794921875	-22.20976638793926	1559.95556640625	780.82470703125	0.6705045700074976	1525.22216796875	1466.67724609375	-489.2742919921872	1514.374877929688	1302.45947265625	-587.8206176757809	1579.90625	1224.332397460938	-583.224426269531	1461.51611328125	1223.571655273438	-620.8749389648435	1526.640991210938	1121.622680664063	-625.3894042968748	1469.60009765625	1109.088500976563	-572.5036010742185	1658.567138671875	968.7605590820314	-582.0858154296873	1692.685546875	917.8771972656251	-522.773010253906	1661.787475585938	883.9818115234376	-586.2226562499998	1746.141845703125	845.9566650390626	-560.5270385742185	1519.099487304688	1067.383422851562	-146.7483978271482	1386.651245117188	1036.683227539062	-308.2570800781248	1501.611694335938	1058.74951171875	-491.2291259765623	1488.777099609375	913.6726684570312	-128.1624755859373	1611.611083984375	648.435791015625	-152.0622253417967	1660.236328125	681.8110961914062	-148.3270721435545	1696.405639648438	585.9178466796875	-182.1695098876952	1633.429321289062	571.7659912109375	-173.1076049804686	1683.1904296875	355.3343811035157	-168.510284423828	1741.821533203125	350.1938476562501	-183.8243103027343	1760.105102539062	267.2646789550782	-201.1000976562499	1696.979736328125	255.91943359375	-189.9356842041015	1721.39013671875	40.23424148559577	-278.0807189941406	1881.455078125	57.84392929077153	-190.44189453125	1926.909057617188	95.75501251220709	-274.4095153808594	1461.005615234375	950.0727539062501	-488.3354797363279	1487.757202148438	660.2093505859376	-468.4532165527342	1439.330810546875	690.1324462890626	-483.6847839355467	1405.219604492188	595.0849609375001	-448.9452514648436	1467.921630859375	583.8606567382814	-442.4595947265624	1363.361694335938	327.6319274902345	-424.3650512695312	1303.369873046875	319.7149353027345	-427.3431396484374	1280.7626953125	237.6897735595704	-406.3383178710937	1343.980712890625	229.865463256836	-397.1368103027343	1197.62255859375	65.77671813964851	-328.6428833007812	1366.772705078125	21.56459617614755	-401.1394653320312	1407.736206054688	26.22364807128913	-296.8584594726562	
